<?xml version="1.0" encoding="UTF-8" standalone="no"?>
<svg width="27px" height="27px" viewBox="0 0 27 27" version="1.1" xmlns="http://www.w3.org/2000/svg" xmlns:xlink="http://www.w3.org/1999/xlink">
    <!-- Generator: Sketch 48.2 (47327) - http://www.bohemiancoding.com/sketch -->
    <title>Group</title>
    <desc>Created with Sketch.</desc>
    <defs></defs>
    <g id="Page-1" stroke="none" stroke-width="1" fill="none" fill-rule="evenodd">
        <g id="Group" fill-rule="nonzero">
            <path d="M24.2604596,2.57737218 L22.3459259,2.57737218 L22.3459259,4.90293994 C22.3459259,6.18857323 20.9958595,7.14851275 19.5992392,7.14851275 C18.2026188,7.14851275 16.7594444,6.18857323 16.7594444,4.90293994 L16.7594444,2.57737218 L9.31080245,2.57737218 L9.31080245,4.90293994 C9.31080245,6.18857323 7.91418209,7.14851275 6.51756172,7.14851275 C5.12094135,7.14851275 3.72432098,6.18857323 3.72432098,4.90293994 L3.72432098,2.57737218 L1.80978723,2.57737218 C0.808875963,2.57737218 0,3.3373243 0,4.25726634 L0,24.6845508 C0,25.6044928 0.808875963,26.3473031 1.80978723,26.3473031 L24.2604596,26.3473031 C25.2613709,26.3473031 26.0702469,25.6044928 26.0702469,24.6788368 L26.0702469,4.25726634 C26.0702469,3.3373243 25.2613709,2.57737218 24.2604596,2.57737218 Z M23.2770061,22.9132338 C23.2770061,23.2903529 22.9394895,23.5989049 22.5321419,23.5989049 L3.53228568,23.6046188 C3.12493807,23.587477 2.79324074,23.284639 2.79324074,22.9075199 L2.79324074,9.67978184 C2.79324074,9.28552097 3.13657658,8.97696898 3.56720119,8.97696898 L22.5088649,8.97696898 C22.9336703,8.97696898 23.2770061,9.27980704 23.2770061,9.66835399 L23.2770061,22.9132338 Z" id="Shape" fill="#1C57FF"></path>
            <path d="M7.66771967,4.36650677 C7.66771967,5.49749542 6.98241722,6.41123201 6.13417573,6.41123201 C5.28593425,6.41123201 4.6006318,5.49749542 4.6006318,4.36650677 L4.6006318,2.32178152 C4.6006318,1.19079287 5.28593425,0.277056277 6.13417573,0.277056277 C6.98241722,0.277056277 7.66771967,1.19079287 7.66771967,2.32178152 L7.66771967,4.36650677 Z" id="Shape" fill="#1C57FF"></path>
            <path d="M20.7028431,4.36650677 C20.7028431,5.49749542 20.0175407,6.41123201 19.1692992,6.41123201 C18.3210577,6.41123201 17.6357552,5.49749542 17.6357552,4.36650677 L17.6357552,2.32178152 C17.6357552,1.19079287 18.3210577,0.277056277 19.1692992,0.277056277 C20.0175407,0.277056277 20.7028431,1.19079287 20.7028431,2.32178152 L20.7028431,4.36650677 Z" id="Shape" fill="#1C57FF"></path>
            <path d="M13.0168969,17.1460395 C9.61950286,17.1460395 7.66771967,15.6124956 7.66771967,15.6124956 L7.66771967,16.3792676 C7.66771967,16.3792676 9.61950286,17.9128115 13.0168969,17.9128115 C16.414291,17.9128115 18.4025272,16.3792676 18.4025272,16.3792676 L18.4025272,15.6124956 C18.4025272,15.6124956 16.414291,17.1460395 13.0168969,17.1460395 Z" id="smiling-face-path" fill="#383800"></path>
        </g>
    </g>
</svg>